<?xml version="1.0" standalone="no"?>
<!DOCTYPE svg PUBLIC "-//W3C//DTD SVG 20010904//EN"
 "http://www.w3.org/TR/2001/REC-SVG-20010904/DTD/svg10.dtd">
<svg version="1.0" xmlns="http://www.w3.org/2000/svg"
 width="1024.000000pt" height="1024.000000pt" viewBox="0 0 1024.000000 1024.000000"
 preserveAspectRatio="xMidYMid meet" >

<g transform="translate(0.000000,1024.000000) scale(0.100000,-0.100000)"
fill="cyan" stroke="none">
<path d="M5255 8911 c-11 -5 -28 -17 -37 -28 -24 -27 -388 -917 -964 -2358
-683 -1708 -1011 -2526 -1139 -2840 -114 -279 -197 -482 -232 -565 -19 -47
-50 -121 -68 -165 -58 -144 -206 -496 -281 -673 -41 -95 -74 -175 -74 -177 0
-3 -36 -86 -80 -186 -44 -99 -80 -191 -80 -205 0 -30 33 -64 63 -64 13 0 230
83 482 184 253 101 629 250 835 331 206 81 380 151 387 157 10 8 34 64 185
423 28 66 54 125 59 131 5 7 44 25 87 42 204 81 315 122 332 122 25 0 46 -32
66 -101 19 -63 39 -89 68 -89 47 0 28 -62 292 980 40 162 74 302 74 311 0 22
-42 59 -68 59 -25 0 -102 -34 -490 -214 -162 -75 -298 -136 -303 -136 -5 0 -9
4 -9 9 0 24 352 920 608 1546 194 475 272 664 290 704 l20 44 15 -29 c14 -26
104 -245 289 -699 126 -309 149 -357 167 -350 9 3 97 50 196 104 99 54 304
165 455 246 151 82 277 150 279 152 6 4 -118 314 -131 328 -5 6 -17 4 -31 -4
-12 -8 -83 -48 -157 -89 -74 -41 -205 -115 -291 -163 -85 -49 -159 -89 -162
-89 -8 0 -16 19 -132 305 -229 568 -456 1119 -478 1161 l-15 28 -15 -30 c-16
-32 -102 -234 -174 -409 -25 -60 -56 -135 -68 -165 -110 -267 -550 -1359 -693
-1720 -47 -118 -173 -433 -280 -700 -107 -267 -206 -514 -219 -550 -13 -36
-40 -101 -60 -145 -19 -44 -51 -116 -70 -160 -19 -44 -55 -124 -79 -177 -49
-109 -52 -126 -25 -159 18 -22 22 -23 53 -11 47 17 48 16 36 -20 -17 -52 -156
-334 -171 -346 -7 -6 -72 -34 -143 -61 -118 -45 -452 -175 -481 -188 -24 -10
-28 -24 100 292 35 88 97 239 137 335 154 372 509 1245 630 1550 43 107 137
344 210 525 73 182 184 461 247 620 191 481 630 1578 828 2065 48 118 111 274
140 345 84 207 95 229 106 218 5 -5 63 -142 128 -304 116 -288 263 -651 396
-979 37 -91 86 -212 110 -270 68 -167 192 -471 210 -513 l15 -37 33 16 c17 9
82 46 144 81 l112 64 -20 52 c-11 29 -54 135 -96 237 -41 102 -109 268 -150
370 -41 102 -100 246 -130 320 -30 74 -88 216 -128 315 -40 99 -114 281 -165
405 -50 124 -157 387 -237 585 -79 198 -154 370 -166 382 -26 26 -64 36 -92
24z m-575 -5318 c0 -23 -70 -234 -82 -250 -9 -11 -187 -84 -458 -188 -52 -20
-122 -47 -155 -60 l-60 -23 -7 40 c-6 33 -1 54 24 117 17 42 36 82 42 89 11
15 70 43 306 144 91 39 203 87 250 108 95 43 140 50 140 23z"/>
<path d="M3893 7543 c-27 -5 -73 -58 -73 -83 0 -24 116 -256 141 -281 28 -28
93 -26 124 6 38 37 32 71 -37 210 -51 102 -68 128 -94 140 -18 8 -34 14 -36
14 -1 -1 -13 -4 -25 -6z"/>
<path d="M6604 7535 c-25 -10 -42 -37 -98 -147 -73 -147 -77 -170 -29 -208 33
-26 83 -25 118 2 39 31 147 252 139 287 -13 56 -77 89 -130 66z"/>
<path d="M3062 6883 c-13 -3 -41 -22 -63 -44 -36 -36 -39 -43 -39 -97 0 -36 6
-66 16 -80 8 -12 97 -91 197 -175 100 -83 205 -173 234 -199 73 -66 107 -82
161 -74 51 7 96 36 117 76 21 40 19 109 -4 146 -10 17 -104 103 -207 192 -104
88 -210 179 -235 201 -66 58 -101 68 -177 54z"/>
<path d="M7393 6875 c-18 -8 -101 -73 -185 -146 -84 -73 -192 -166 -240 -207
-95 -80 -114 -115 -105 -184 14 -106 127 -162 216 -107 19 11 139 110 267 220
250 215 271 239 259 310 -17 97 -121 154 -212 114z"/>
<path d="M2470 5933 c-33 -12 -70 -57 -70 -85 0 -37 24 -83 47 -93 61 -24 516
-190 553 -202 84 -26 150 10 150 82 0 50 -32 80 -118 113 -119 46 -532 192
-540 191 -4 0 -14 -3 -22 -6z"/>
<path d="M8005 5926 c-22 -7 -130 -47 -240 -89 -110 -41 -228 -85 -263 -98
-69 -24 -92 -52 -92 -109 0 -38 47 -90 82 -90 13 0 84 22 158 49 517 188 500
180 500 248 0 45 -14 69 -50 88 -34 18 -42 18 -95 1z"/>
<path d="M6715 5306 c-22 -13 -229 -128 -460 -256 -231 -127 -422 -234 -424
-236 -3 -3 0 -21 6 -42 13 -43 147 -368 189 -459 l29 -61 130 79 c105 63 130
82 128 99 -2 11 -20 57 -40 102 -31 68 -35 83 -23 90 110 66 338 188 348 186
8 -2 48 -84 90 -182 43 -99 82 -181 88 -183 6 -2 74 33 152 77 130 75 140 83
132 103 -21 54 -184 455 -232 571 -29 71 -58 131 -63 132 -6 2 -28 -7 -50 -20z"/>
<path d="M2455 5121 c-95 -43 -112 -162 -34 -237 l30 -29 262 -3 c144 -2 277
0 295 3 46 9 98 64 107 114 10 61 -23 123 -79 150 -39 20 -60 21 -292 21 -220
0 -254 -3 -289 -19z"/>
<path d="M7535 5126 c-113 -50 -121 -206 -13 -262 21 -11 84 -14 291 -14 258
0 265 1 298 23 43 29 79 82 79 116 -1 50 -36 108 -79 130 -38 20 -57 21 -293
21 -188 -1 -261 -4 -283 -14z"/>
<path d="M2520 4265 c-111 -39 -134 -61 -127 -118 6 -43 21 -65 54 -78 31 -11
220 55 251 88 31 34 29 78 -7 114 -17 16 -40 29 -53 28 -13 0 -66 -15 -118
-34z"/>
<path d="M7885 4288 c-32 -17 -45 -39 -45 -77 1 -57 25 -77 139 -117 117 -40
142 -39 171 9 46 74 9 121 -130 166 -106 35 -107 35 -135 19z"/>
<path d="M7090 4229 c-58 -34 -145 -85 -195 -114 -107 -63 -854 -500 -1079
-631 -88 -51 -165 -99 -172 -106 -10 -11 -310 -530 -448 -778 -214 -382 -631
-1114 -652 -1145 -33 -47 0 -125 53 -125 16 0 125 62 564 318 18 11 95 140
260 436 309 556 508 909 518 919 9 9 278 -87 299 -107 6 -7 58 -122 115 -256
57 -135 112 -263 122 -285 23 -47 -45 -17 740 -320 292 -112 616 -239 720
-281 295 -119 268 -111 299 -91 40 26 43 59 11 130 -14 34 -162 386 -327 782
-261 626 -373 896 -656 1577 -31 76 -59 138 -62 138 -3 0 -52 -28 -110 -61z
m18 -589 c30 -69 129 -305 219 -525 91 -220 199 -481 240 -580 94 -226 125
-307 120 -312 -4 -3 -256 90 -541 200 l-108 42 -73 155 c-39 85 -77 170 -83
188 l-11 33 43 -6 c38 -6 46 -4 55 13 6 12 11 29 11 39 0 19 -88 228 -162 383
-54 115 -128 288 -128 299 0 8 163 111 176 111 2 0 32 17 66 38 73 45 88 51
108 49 8 -1 37 -55 68 -127z m-600 -252 c22 -18 48 -46 58 -63 27 -44 73 -154
80 -192 l6 -33 -98 36 c-55 20 -148 53 -209 74 -60 21 -123 43 -139 49 l-29
12 24 17 c64 45 226 132 245 132 12 0 40 -15 62 -32z"/>
</g>
</svg>
